<?xml version="1.0" encoding="UTF-8" standalone="no"?>
<svg
   xmlns:dc="http://purl.org/dc/elements/1.1/"
   xmlns:cc="http://creativecommons.org/ns#"
   xmlns:rdf="http://www.w3.org/1999/02/22-rdf-syntax-ns#"
   xmlns:svg="http://www.w3.org/2000/svg"
   xmlns="http://www.w3.org/2000/svg"
   xmlns:sodipodi="http://sodipodi.sourceforge.net/DTD/sodipodi-0.dtd"
   xmlns:inkscape="http://www.inkscape.org/namespaces/inkscape"
   viewBox="0 0 5 5"
   version="1.1"
   id="svg9"
   sodipodi:docname="iconfinder_up_4829875.svg"
   width="50"
   height="50"
   inkscape:version="1.0.2-2 (e86c870879, 2021-01-15)">
  <metadata
     id="metadata15">
    <rdf:RDF>
      <cc:Work
         rdf:about="">
        <dc:format>image/svg+xml</dc:format>
        <dc:type
           rdf:resource="http://purl.org/dc/dcmitype/StillImage" />
        <dc:title></dc:title>
      </cc:Work>
    </rdf:RDF>
  </metadata>
  <defs
     id="defs13" />
  <sodipodi:namedview
     pagecolor="#ffffff"
     bordercolor="#666666"
     borderopacity="1"
     objecttolerance="10"
     gridtolerance="10"
     guidetolerance="10"
     inkscape:pageopacity="0"
     inkscape:pageshadow="2"
     inkscape:window-width="1302"
     inkscape:window-height="905"
     id="namedview11"
     showgrid="false"
     scale-x="0.1"
     inkscape:zoom="11.569609"
     inkscape:cx="13.713936"
     inkscape:cy="23.805806"
     inkscape:window-x="2162"
     inkscape:window-y="50"
     inkscape:window-maximized="0"
     inkscape:current-layer="svg9" />
  <g
     data-name="Layer 2"
     id="Layer_2-2"
     transform="matrix(0.16513773,0,0,0.16680623,-0.1479613,-0.15715918)">
    <path
       d="M 1,16 A 15,15 0 1 1 16,31 15,15 0 0 1 1,16 Z m 2,0 A 13,13 0 1 0 16,3 13,13 0 0 0 3,16 Z"
       id="path34" />
    <path
       d="m 10.41,19.87 5.59,-5.58 5.59,5.58 a 1,1 0 0 0 1.41,0 v 0 a 1,1 0 0 0 0,-1.41 L 16.64,12.1 a 0.91,0.91 0 0 0 -1.28,0 L 9,18.46 a 1,1 0 0 0 0,1.41 v 0 a 1,1 0 0 0 1.41,0 z"
       id="path36" />
  </g>
</svg>
